<svg width="283" height="60" viewBox="0 0 283 60" fill="none" xmlns="http://www.w3.org/2000/svg">
<g clip-path="url(#clip0_43_1277)">
<path d="M0 60H60.2878V0.159149H0V60ZM17.9901 27.8037L20.9244 31.4324L20.9725 27.8037L21.0045 24.191H23.7303V35.809L22.3354 35.7931H20.9244L16.515 30.3024C14.0939 27.2944 12.0095 24.6843 11.8812 24.5093C11.6727 24.191 11.7048 24.191 13.3563 24.191H15.0559L17.9901 27.8037ZM29.6629 35.809H26.9371V30.1114C26.9371 26.9761 26.9852 24.3501 27.0494 24.3024C27.0975 24.2387 27.7228 24.191 28.4122 24.191H29.6629V35.809ZM39.139 24.3501C39.62 24.4456 40.4538 24.7321 40.9989 24.9867C44.4783 26.6897 45.1197 31.6393 42.1694 34.2653C40.7584 35.5225 40.0529 35.7135 36.2849 35.7772L33.03 35.8249V24.191H35.6596C37.1027 24.191 38.674 24.2706 39.139 24.3501ZM48.7433 35.809H46.0176V24.191H48.7433V35.809Z" fill="#181716"/>
<path d="M35.7558 33.3103L37.247 33.2308C39.3314 33.1194 40.2453 32.626 40.8065 31.305C41.4479 29.7613 40.8867 28.0743 39.4597 27.3422C38.7061 26.9443 38.4174 26.8965 37.1828 26.8965H35.7558V33.3103Z" fill="#181716"/>
<path d="M86.3749 24.191C84.6753 24.6207 83.2483 25.7666 82.4787 27.3103C82.0457 28.1857 82.0137 28.3766 82.0137 30.0796C82.0137 31.6233 82.0618 32.0212 82.3664 32.6578C82.8795 33.7878 84.0179 34.9018 85.1884 35.427C86.1023 35.8568 86.3268 35.8886 88.0264 35.8886C89.7581 35.8886 89.9345 35.8568 90.9125 35.3952C92.2273 34.7745 93.0771 33.931 93.6704 32.6737C94.6004 30.748 94.408 28.1857 93.2214 26.4668C92.1632 24.939 90.6079 24.1751 88.4273 24.0955C87.6416 24.0636 86.7116 24.1114 86.3749 24.191ZM89.6298 26.9284C90.7201 27.4854 91.2813 28.4085 91.3615 29.7772C91.4256 30.7321 91.3775 31.0026 90.9927 31.7506C90.3193 33.1353 88.748 33.8196 87.2087 33.4217C85.8939 33.0716 84.6593 31.4005 84.6593 29.9522C84.6593 28.7586 85.6213 27.2467 86.6635 26.801C87.4332 26.4668 88.8121 26.5305 89.6298 26.9284Z" fill="#181716"/>
<path d="M230.168 24.3501C227.426 25.2414 225.871 28.0106 226.384 31.0663C226.721 33.1193 227.779 34.5676 229.543 35.427C230.424 35.8568 230.617 35.8886 232.332 35.8886C234.224 35.8886 234.978 35.6976 235.94 34.9655C236.245 34.7268 236.245 34.7109 235.78 33.756C235.523 33.2148 235.251 32.7851 235.186 32.7851C235.106 32.7851 234.738 32.9443 234.369 33.1353C233.872 33.3899 233.407 33.4854 232.637 33.4854C231.723 33.4854 231.451 33.4217 230.793 33.0079C228.5 31.6074 228.629 27.8037 231.002 26.801C231.803 26.4509 233.343 26.5146 234.128 26.9125C234.497 27.1034 234.834 27.1989 234.85 27.1193C234.882 27.0398 235.154 26.5782 235.459 26.1008C235.972 25.2891 235.988 25.2095 235.732 25.0026C234.545 24.0796 231.948 23.7613 230.168 24.3501Z" fill="#181716"/>
<path d="M72.1528 30V35.809H73.5157H74.8626L74.9107 33.8833L74.9588 31.9575L76.1613 31.9098C78.855 31.8143 80.4905 30.3342 80.4905 27.9947C80.4905 26.8647 80.2019 26.1167 79.4643 25.4005C78.5023 24.4297 77.4922 24.191 74.5098 24.191H72.1528V30ZM77.2837 27.0557C77.7006 27.4695 77.7166 28.4721 77.2997 28.9814C77.0432 29.2997 76.8508 29.3634 75.9689 29.3634H74.9588L74.9107 28.0424L74.8626 26.7374H75.9208C76.7546 26.7374 77.0272 26.801 77.2837 27.0557Z" fill="#181716"/>
<path d="M97.8076 25.2255C97.8076 27.6605 97.2624 30.748 96.5249 32.4509C96.1882 33.1989 96.1401 33.2467 95.4987 33.2944L94.8413 33.3422V35.5703V37.7984L96.092 37.8461L97.3266 37.8939V36.8435V35.809H100.934H104.542V36.8435V37.8939L105.793 37.8461L107.027 37.7984V35.5703V33.3422L106.274 33.2944L105.504 33.2467V28.7109V24.191H101.656H97.8076V25.2255ZM102.778 30V33.2626H100.966H99.1545L99.5232 32.1485C99.9081 31.0026 100.373 28.3926 100.373 27.3263V26.7374H101.576H102.778V30Z" fill="#181716"/>
<path d="M108.871 30V35.809H110.073H111.26L113.793 32.2918L116.326 28.7745L116.375 32.2918L116.407 35.809H117.769H119.132V30V24.191H117.946H116.759L114.21 27.7241L111.677 31.2573L111.628 27.7241L111.596 24.191H110.233H108.871V30Z" fill="#181716"/>
<path d="M122.019 30V35.809H123.381H124.744V33.5013V31.1936H126.909H129.074V33.5013V35.809H130.356H131.639V30V24.191H130.356H129.074V26.4191V28.6472H126.909H124.744V26.4191V24.191H123.381H122.019V30Z" fill="#181716"/>
<path d="M137.828 24.7003C137.7 24.9867 136.626 27.565 135.423 30.4456C134.221 33.3103 133.243 35.6976 133.243 35.7294C133.243 35.7772 133.836 35.809 134.573 35.809H135.888L136.353 34.6154L136.818 33.4217H139.159H141.5L141.949 34.6154L142.398 35.809H143.857C144.947 35.809 145.284 35.7613 145.22 35.6021C145.172 35.5066 144.114 32.9761 142.863 30C141.612 27.0239 140.554 24.4934 140.506 24.3819C140.458 24.2546 140.041 24.191 139.223 24.191H138.037L137.828 24.7003ZM139.833 29.3316L140.426 30.7957L139.223 30.8435C138.55 30.8753 137.989 30.8594 137.957 30.8276C137.877 30.748 139.047 27.8514 139.159 27.8514C139.207 27.8514 139.512 28.5199 139.833 29.3316Z" fill="#181716"/>
<path d="M151.714 26.6101C151.521 29.2201 151.072 31.2891 150.463 32.4987C150.094 33.2148 150.03 33.2626 149.437 33.2626H148.795V35.5703V37.8939L150.046 37.8461L151.281 37.7984L151.329 36.7957L151.377 35.809H154.968H158.576V36.8435V37.878H159.779H160.981V35.5703V33.2626H160.26H159.538V28.7268V24.191H155.722H151.906L151.714 26.6101ZM156.812 30V33.2626H154.968C153.958 33.2626 153.125 33.2308 153.125 33.1989C153.125 33.1671 153.237 32.8647 153.381 32.5464C153.734 31.7188 154.199 29.4589 154.327 27.9629L154.439 26.7374H155.626H156.812V30Z" fill="#181716"/>
<path d="M161.831 24.557C161.959 24.7639 162.873 26.0212 163.851 27.374L165.631 29.809L165.086 30.5411C164.429 31.4483 161.719 35.3316 161.558 35.6021C161.462 35.7613 161.799 35.809 162.985 35.809H164.525L166.321 33.0716L168.116 30.3342L168.164 33.0716L168.197 35.809H169.559H170.922L170.954 33.1512L171.002 30.5093L172.766 33.1512L174.53 35.809H176.101H177.673L176.807 34.5676C174.145 30.8117 173.488 29.8249 173.552 29.6658C173.616 29.5066 176.839 25.0663 177.384 24.3819C177.496 24.2387 177.192 24.191 175.957 24.191L174.37 24.2069L172.654 26.6896L170.922 29.1883V26.6896V24.191H169.559H168.213L168.164 26.6896L168.116 29.1883L166.385 26.6896L164.653 24.191H163.114H161.591L161.831 24.557Z" fill="#181716"/>
<path d="M178.01 24.5411C178.138 24.748 179.276 26.6101 180.527 28.695C182.643 32.1963 182.804 32.5305 182.643 32.8965C182.467 33.2626 182.387 33.2944 181.665 33.2308C181.056 33.1671 180.88 33.1989 180.816 33.4058C180.767 33.5491 180.591 34.0424 180.399 34.504L180.062 35.3475L180.655 35.6021C182.066 36.1751 183.718 35.618 184.632 34.2493C184.936 33.7878 188.4 26.1804 189.057 24.5411C189.185 24.191 189.185 24.191 187.855 24.191H186.508L185.337 26.992C184.327 29.4271 184.151 29.7613 183.958 29.5225C183.846 29.3634 183.108 28.1061 182.291 26.7215L180.832 24.191H179.308H177.785L178.01 24.5411Z" fill="#181716"/>
<path d="M190.805 29.9841V35.809H192.168H193.53V33.8514V31.9098L194.781 31.8939C196.753 31.8621 198.084 31.13 198.758 29.6976C199.688 27.7241 198.966 25.5756 197.074 24.6843C196.24 24.3024 196 24.2705 193.498 24.2228L190.805 24.1591V29.9841ZM195.936 27.0557C196.256 27.374 196.368 28.1857 196.16 28.7268C196 29.1247 195.214 29.443 194.332 29.443H193.53V28.0902V26.7374H194.573C195.406 26.7374 195.679 26.801 195.936 27.0557Z" fill="#181716"/>
<path d="M201.387 30V35.809H202.557H203.712L206.245 32.2758L208.762 28.7586V32.2758V35.809H210.125H211.488V30V24.191H210.334H209.163L206.678 27.6923C205.315 29.6021 204.145 31.1777 204.08 31.1936C204 31.1936 203.952 29.618 203.952 27.6923V24.191H202.669H201.387V30Z" fill="#181716"/>
<path d="M214.535 30V35.809H215.898H217.26V33.5013V31.1936H219.345H221.429V33.5013V35.809H222.792H224.155V30V24.191H222.792H221.429V26.4191V28.6472H219.345H217.26V26.4191V24.191H215.898H214.535V30Z" fill="#181716"/>
<path d="M238.105 30V35.809H240.334C242.931 35.809 243.829 35.5862 244.855 34.7268C245.769 33.9469 246.122 33.1353 246.122 31.7029C246.122 29.1724 244.984 28.0424 242.194 27.8674L240.751 27.7719L240.702 25.9735L240.654 24.191H239.388H238.105V30ZM242.514 30.4615C243.22 30.7639 243.557 31.687 243.22 32.4032C242.915 33.0239 241.953 33.4854 241.232 33.3581L240.67 33.2467V31.8302C240.67 30.8594 240.735 30.3979 240.879 30.3501C241.264 30.191 241.969 30.2387 242.514 30.4615Z" fill="#181716"/>
<path d="M248.367 30V35.809H249.73H251.092L251.125 33.1671L251.173 30.5252L253.081 33.1671L255.005 35.809H256.656C257.57 35.809 258.308 35.7772 258.308 35.7135C258.308 35.6658 257.266 34.2652 255.983 32.6101L253.674 29.5862L255.823 26.9761C257.009 25.5278 257.987 24.3183 257.987 24.2705C257.987 24.2228 257.282 24.191 256.416 24.191H254.86L252.968 26.6896L251.092 29.1883V26.6896V24.191H249.73H248.367V30Z" fill="#181716"/>
<path d="M259.911 30V35.809H261.098H262.284L264.818 32.2599L267.367 28.7268L267.415 32.2599L267.447 35.809H268.81H270.173V30V24.1751L268.938 24.2228L267.688 24.2705L265.202 27.756L262.717 31.2414L262.669 27.7082L262.637 24.191H261.274H259.911V30Z" fill="#181716"/>
<path d="M271.969 24.5411C272.113 24.748 272.947 26.0371 273.845 27.4058L275.48 29.9045L273.652 32.6578C272.658 34.1697 271.792 35.5066 271.712 35.6021C271.632 35.7613 271.953 35.809 273.187 35.809H274.759L275.977 33.8833L277.196 31.9575L278.062 33.2785C278.543 34.0106 279.088 34.8859 279.296 35.2042L279.665 35.809H281.252H282.856L282.311 34.9655C282.006 34.5199 281.14 33.183 280.371 32.0212L278.976 29.9045L280.707 27.2467C281.669 25.7825 282.519 24.4934 282.583 24.3819C282.663 24.2387 282.343 24.191 281.124 24.191H279.553L278.447 26.0212C277.837 27.0239 277.324 27.8514 277.292 27.8514C277.276 27.8514 276.731 27.0239 276.09 26.0212L274.919 24.191H273.332H271.744L271.969 24.5411Z" fill="#181716"/>
</g>
<defs>
<clipPath id="clip0_43_1277">
<rect width="283" height="60" fill="white"/>
</clipPath>
</defs>
</svg>
