<svg width="143" height="30" viewBox="0 0 143 30" fill="none" xmlns="http://www.w3.org/2000/svg">
<g clip-path="url(#clip0_72_1050)">
<path d="M0 30H30.4635V0.0795898H0V30ZM9.09043 13.9019L10.5731 15.7162L10.5974 13.9019L10.6136 12.0955H11.9909V17.9045L11.2861 17.8966H10.5731L8.34504 15.1512C7.12164 13.6472 6.06839 12.3422 6.00357 12.2547C5.89824 12.0955 5.91445 12.0955 6.74895 12.0955H7.60776L9.09043 13.9019ZM14.9887 17.9045H13.6113V15.0557C13.6113 13.4881 13.6356 12.1751 13.668 12.1512C13.6924 12.1194 14.0083 12.0955 14.3567 12.0955H14.9887V17.9045ZM19.7769 12.1751C20.02 12.2228 20.4413 12.3661 20.7168 12.4934C22.4749 13.3448 22.799 15.8196 21.3082 17.1326C20.5952 17.7613 20.2388 17.8568 18.3348 17.8886L16.6901 17.9125V12.0955H18.0188C18.748 12.0955 19.542 12.1353 19.7769 12.1751ZM24.63 17.9045H23.2527V12.0955H24.63V17.9045Z" fill="white"/>
<path d="M18.0674 16.6552L18.8209 16.6154C19.8742 16.5597 20.336 16.313 20.6195 15.6525C20.9436 14.8806 20.6601 14.0371 19.939 13.6711C19.5582 13.4722 19.4124 13.4483 18.7885 13.4483H18.0674V16.6552Z" fill="white"/>
<path d="M43.6451 12.0955C42.7863 12.3103 42.0653 12.8833 41.6764 13.6552C41.4576 14.0928 41.4414 14.1883 41.4414 15.0398C41.4414 15.8117 41.4657 16.0106 41.6196 16.3289C41.8789 16.8939 42.4542 17.4509 43.0456 17.7135C43.5074 17.9284 43.6208 17.9443 44.4797 17.9443C45.3547 17.9443 45.4438 17.9284 45.938 17.6976C46.6024 17.3873 47.0318 16.9655 47.3315 16.3369C47.8015 15.374 47.7042 14.0928 47.1047 13.2334C46.57 12.4695 45.7841 12.0875 44.6822 12.0477C44.2852 12.0318 43.8153 12.0557 43.6451 12.0955ZM45.2898 13.4642C45.8408 13.7427 46.1244 14.2042 46.1649 14.8886C46.1973 15.366 46.173 15.5013 45.9785 15.8753C45.6382 16.5676 44.8442 16.9098 44.0664 16.7109C43.4021 16.5358 42.7782 15.7003 42.7782 14.9761C42.7782 14.3793 43.2644 13.6233 43.791 13.4005C44.1799 13.2334 44.8766 13.2652 45.2898 13.4642Z" fill="white"/>
<path d="M116.304 12.1751C114.919 12.6207 114.133 14.0053 114.392 15.5331C114.562 16.5597 115.097 17.2838 115.988 17.7135C116.434 17.9284 116.531 17.9443 117.398 17.9443C118.354 17.9443 118.735 17.8488 119.221 17.4828C119.375 17.3634 119.375 17.3554 119.14 16.878C119.01 16.6074 118.872 16.3926 118.84 16.3926C118.799 16.3926 118.613 16.4721 118.427 16.5676C118.176 16.695 117.941 16.7427 117.552 16.7427C117.09 16.7427 116.952 16.7109 116.62 16.504C115.461 15.8037 115.526 13.9018 116.725 13.4005C117.13 13.2255 117.908 13.2573 118.305 13.4562C118.491 13.5517 118.662 13.5995 118.67 13.5597C118.686 13.5199 118.824 13.2891 118.978 13.0504C119.237 12.6446 119.245 12.6048 119.115 12.5013C118.516 12.0398 117.203 11.8806 116.304 12.1751Z" fill="white"/>
<path d="M36.459 15V17.9045H37.1477H37.8282L37.8525 16.9416L37.8768 15.9788L38.4845 15.9549C39.8456 15.9072 40.672 15.1671 40.672 13.9973C40.672 13.4324 40.5262 13.0584 40.1535 12.7003C39.6674 12.2149 39.1569 12.0955 37.65 12.0955H36.459V15ZM39.0516 13.5279C39.2623 13.7347 39.2704 14.2361 39.0597 14.4907C38.9301 14.6499 38.8329 14.6817 38.3873 14.6817H37.8768L37.8525 14.0212L37.8282 13.3687H38.363C38.7843 13.3687 38.922 13.4005 39.0516 13.5279Z" fill="white"/>
<path d="M49.4222 12.6127C49.4222 13.8302 49.1467 15.374 48.774 16.2255C48.6039 16.5995 48.5796 16.6233 48.2555 16.6472L47.9233 16.6711V17.7851V18.8992L48.5553 18.9231L49.1791 18.9469V18.4217V17.9045H51.0021H52.825V18.4217V18.9469L53.457 18.9231L54.0808 18.8992V17.7851V16.6711L53.7001 16.6472L53.3112 16.6233V14.3554V12.0955H51.3667H49.4222V12.6127ZM51.9338 15V16.6313H51.0183H50.1028L50.2891 16.0743C50.4836 15.5013 50.7185 14.1963 50.7185 13.6631V13.3687H51.3262H51.9338V15Z" fill="white"/>
<path d="M55.0127 15V17.9045H55.6203H56.2199L57.5 16.1459L58.7801 14.3873L58.8044 16.1459L58.8206 17.9045H59.5093H60.198V15V12.0955H59.5984H58.9989L57.7107 13.8621L56.4305 15.6286L56.4062 13.8621L56.39 12.0955H55.7014H55.0127V15Z" fill="white"/>
<path d="M61.6562 15V17.9045H62.3449H63.0336V16.7507V15.5968H64.1274H65.2211V16.7507V17.9045H65.8693H66.5174V15V12.0955H65.8693H65.2211V13.2095V14.3236H64.1274H63.0336V13.2095V12.0955H62.3449H61.6562V15Z" fill="white"/>
<path d="M69.6448 12.3501C69.58 12.4934 69.0372 13.7825 68.4295 15.2228C67.8219 16.6552 67.3276 17.8488 67.3276 17.8647C67.3276 17.8886 67.6274 17.9045 68.0001 17.9045H68.6645L68.8994 17.3077L69.1344 16.7109H70.3173H71.5002L71.727 17.3077L71.9539 17.9045H72.6912C73.2421 17.9045 73.4122 17.8806 73.3798 17.8011C73.3555 17.7533 72.8208 16.4881 72.1888 15C71.5569 13.5119 71.0221 12.2467 70.9978 12.191C70.9735 12.1273 70.7629 12.0955 70.3497 12.0955H69.7501L69.6448 12.3501ZM70.6576 14.6658L70.9573 15.3979L70.3497 15.4218C70.0094 15.4377 69.7258 15.4297 69.7096 15.4138C69.6691 15.374 70.2606 13.9257 70.3173 13.9257C70.3416 13.9257 70.4955 14.2599 70.6576 14.6658Z" fill="white"/>
<path d="M76.6611 13.305C76.5639 14.6101 76.337 15.6446 76.0291 16.2493C75.8428 16.6074 75.8104 16.6313 75.5106 16.6313H75.1865V17.7851V18.9469L75.8185 18.9231L76.4423 18.8992L76.4666 18.3979L76.4909 17.9045H78.3058H80.1287V18.4217V18.939H80.7364H81.344V17.7851V16.6313H80.9794H80.6149V14.3634V12.0955H78.6866H76.7583L76.6611 13.305ZM79.2375 15V16.6313H78.3058C77.7954 16.6313 77.3741 16.6154 77.3741 16.5995C77.3741 16.5835 77.4308 16.4324 77.5037 16.2732C77.6819 15.8594 77.9169 14.7294 77.9817 13.9814L78.0384 13.3687H78.638H79.2375V15Z" fill="white"/>
<path d="M81.7735 12.2785C81.8383 12.382 82.3001 13.0106 82.7943 13.687L83.6937 14.9045L83.4182 15.2706C83.086 15.7241 81.7168 17.6658 81.6358 17.8011C81.5872 17.8806 81.7573 17.9045 82.3568 17.9045H83.1346L84.0421 16.5358L84.9495 15.1671L84.9738 16.5358L84.99 17.9045H85.6787H86.3673L86.3835 16.5756L86.4078 15.2546L87.2991 16.5756L88.1903 17.9045H88.9843H89.7783L89.3408 17.2838C87.9958 15.4058 87.6636 14.9125 87.696 14.8329C87.7285 14.7533 89.357 12.5332 89.6324 12.191C89.6891 12.1194 89.5352 12.0955 88.9113 12.0955L88.1092 12.1034L87.2423 13.3448L86.3673 14.5942V13.3448V12.0955H85.6787H84.9981L84.9738 13.3448L84.9495 14.5942L84.0745 13.3448L83.1994 12.0955H82.4217H81.652L81.7735 12.2785Z" fill="white"/>
<path d="M89.9484 12.2706C90.0132 12.374 90.5884 13.305 91.2204 14.3475C92.2899 16.0981 92.3709 16.2653 92.2899 16.4483C92.2007 16.6313 92.1602 16.6472 91.7956 16.6154C91.4878 16.5836 91.3986 16.5995 91.3662 16.7029C91.3419 16.7745 91.2528 17.0212 91.1556 17.252L90.9854 17.6737L91.2852 17.8011C91.9982 18.0875 92.8327 17.809 93.2945 17.1247C93.4484 16.8939 95.1985 13.0902 95.5307 12.2706C95.5955 12.0955 95.5955 12.0955 94.923 12.0955H94.2424L93.651 13.496C93.1406 14.7135 93.0514 14.8806 92.9542 14.7613C92.8975 14.6817 92.5248 14.0531 92.1116 13.3607L91.3743 12.0955H90.6046H89.835L89.9484 12.2706Z" fill="white"/>
<path d="M96.4136 14.992V17.9045H97.1022H97.7909V16.9257V15.9549L98.4229 15.947C99.4194 15.931 100.092 15.565 100.432 14.8488C100.902 13.8621 100.537 12.7878 99.5814 12.3422C99.1601 12.1512 99.0386 12.1353 97.7747 12.1114L96.4136 12.0796V14.992ZM99.0062 13.5279C99.1682 13.687 99.225 14.0928 99.1196 14.3634C99.0386 14.5623 98.6416 14.7215 98.196 14.7215H97.7909V14.0451V13.3687H98.3175C98.7388 13.3687 98.8766 13.4005 99.0062 13.5279Z" fill="white"/>
<path d="M101.761 15V17.9045H102.352H102.936L104.216 16.1379L105.488 14.3793V16.1379V17.9045H106.176H106.865V15V12.0955H106.282H105.69L104.434 13.8462C103.746 14.8011 103.154 15.5889 103.122 15.5968C103.081 15.5968 103.057 14.809 103.057 13.8462V12.0955H102.409H101.761V15Z" fill="white"/>
<path d="M108.404 15V17.9045H109.093H109.782V16.7507V15.5968H110.835H111.888V16.7507V17.9045H112.577H113.265V15V12.0955H112.577H111.888V13.2095V14.3236H110.835H109.782V13.2095V12.0955H109.093H108.404V15Z" fill="white"/>
<path d="M120.314 15V17.9045H121.441C122.753 17.9045 123.207 17.7931 123.725 17.3634C124.187 16.9735 124.365 16.5676 124.365 15.8515C124.365 14.5862 123.79 14.0212 122.38 13.9337L121.651 13.8859L121.627 12.9867L121.603 12.0955H120.963H120.314V15ZM122.542 15.2308C122.899 15.382 123.069 15.8435 122.899 16.2016C122.745 16.5119 122.259 16.7427 121.894 16.679L121.611 16.6233V15.9151C121.611 15.4297 121.643 15.1989 121.716 15.1751C121.911 15.0955 122.267 15.1194 122.542 15.2308Z" fill="white"/>
<path d="M125.5 15V17.9045H126.188H126.877L126.893 16.5836L126.917 15.2626L127.881 16.5836L128.854 17.9045H129.688C130.15 17.9045 130.523 17.8886 130.523 17.8568C130.523 17.8329 129.996 17.1326 129.348 16.305L128.181 14.7931L129.267 13.4881C129.866 12.7639 130.361 12.1592 130.361 12.1353C130.361 12.1114 130.004 12.0955 129.567 12.0955H128.781L127.825 13.3448L126.877 14.5942V13.3448V12.0955H126.188H125.5V15Z" fill="white"/>
<path d="M131.333 15V17.9045H131.933H132.532L133.812 16.13L135.1 14.3634L135.125 16.13L135.141 17.9045H135.83H136.518V15V12.0875L135.894 12.1114L135.262 12.1353L134.007 13.878L132.751 15.6207L132.727 13.8541L132.71 12.0955H132.022H131.333V15Z" fill="white"/>
<path d="M137.426 12.2706C137.499 12.374 137.92 13.0186 138.374 13.7029L139.2 14.9523L138.277 16.3289C137.774 17.0849 137.337 17.7533 137.296 17.8011C137.256 17.8806 137.418 17.9045 138.042 17.9045H138.836L139.451 16.9416L140.067 15.9788L140.505 16.6393C140.748 17.0053 141.023 17.443 141.129 17.6021L141.315 17.9045H142.117H142.927L142.652 17.4828C142.498 17.2599 142.06 16.5915 141.671 16.0106L140.967 14.9523L141.842 13.6233C142.328 12.8912 142.757 12.2467 142.79 12.191C142.83 12.1194 142.668 12.0955 142.052 12.0955H141.258L140.699 13.0106C140.391 13.5119 140.132 13.9257 140.116 13.9257C140.108 13.9257 139.832 13.5119 139.508 13.0106L138.917 12.0955H138.115H137.313L137.426 12.2706Z" fill="white"/>
</g>
<defs>
<clipPath id="clip0_72_1050">
<rect width="143" height="30" fill="white"/>
</clipPath>
</defs>
</svg>
