<svg width="275" height="66" viewBox="0 0 275 66" fill="none" xmlns="http://www.w3.org/2000/svg">
<rect x="0.25" y="0.25" width="71.5" height="65.5" rx="1.75" stroke="white" stroke-width="0.5"/>
<mask id="mask0_476_5228" style="mask-type:alpha" maskUnits="userSpaceOnUse" x="11" y="23" width="50" height="20">
<rect x="11" y="23" width="50" height="20" fill="#D9D9D9"/>
</mask>
<g mask="url(#mask0_476_5228)">
<path d="M23.712 34.8405L16.75 26.0596H12.7358L23.712 39.7954H26.848V26.0596H23.712V34.8405Z" fill="white"/>
<path d="M33.9358 26.0596H30.7998V39.7954H33.9358V26.0596Z" fill="white"/>
<path d="M43.0926 26.0596H37.8867V39.7955H43.0926C48.1729 39.7955 50.8072 36.7221 50.8072 32.8962C50.8072 29.0702 48.1729 25.9969 43.0926 26.0596ZM43.0926 36.7221H41.0228V29.0702H43.0926C45.915 29.0702 47.4203 30.8264 47.4203 32.8962C47.4203 34.966 45.915 36.7849 43.0926 36.7221Z" fill="white"/>
<path d="M56.264 26.0596H53.1279V39.7954H56.264V26.0596Z" fill="white"/>
</g>
<path d="M85.04 38H83.68V26.8C84.304 26.8 85.904 26.768 86.608 26.768C89.808 26.768 90.752 28.496 90.752 30.24C90.752 32.064 89.456 33.76 86.72 33.76C86.272 33.76 85.6 33.744 85.04 33.696V38ZM86.736 28.048C86.288 28.048 85.568 28.064 85.04 28.08V32.4C85.584 32.448 86.112 32.48 86.672 32.48C88.32 32.48 89.312 31.632 89.312 30.224C89.312 28.896 88.512 28.048 86.736 28.048ZM92.2063 32.4C92.2063 29.152 94.5903 26.64 97.9183 26.64C101.166 26.64 103.63 28.992 103.63 32.4C103.63 35.728 101.166 38.16 97.9183 38.16C94.6703 38.16 92.2063 35.808 92.2063 32.4ZM93.6463 32.4C93.6463 34.944 95.5182 36.88 97.9183 36.88C100.478 36.88 102.19 34.928 102.19 32.4C102.19 29.792 100.318 27.92 97.9183 27.92C95.4863 27.92 93.6463 29.792 93.6463 32.4ZM104.146 40.08V36.72H105.346C105.81 36.144 106.946 33.728 107.186 29.04L107.298 26.8H113.89V36.72H115.41V40.08H114.13V38H105.426V40.08H104.146ZM108.466 30.08C108.194 33.936 107.266 36.208 106.85 36.72H112.53V28.08H108.61L108.466 30.08ZM118.771 38H117.571V26.8H118.931V35.76L125.731 26.8H126.931V38H125.571V29.04L118.771 38ZM137.809 38V32.928H131.649V38H130.289V26.8H131.649V31.648H137.809V26.8H139.169V38H137.809ZM141.084 38L145.9 26.736H147.068L151.884 38H150.428L148.988 34.608H143.884L142.46 38H141.084ZM146.444 28.544L144.428 33.328H148.46L146.444 28.544ZM155.959 40.08V36.72H157.159C157.623 36.144 158.759 33.728 158.999 29.04L159.111 26.8H165.703V36.72H167.223V40.08H165.943V38H157.239V40.08H155.959ZM160.279 30.08C160.007 33.936 159.079 36.208 158.663 36.72H164.343V28.08H160.423L160.279 30.08ZM182.011 26.8L177.483 32.144L182.187 38H180.603L175.995 32.16L180.427 26.8H182.011ZM174.347 38V26.8H175.707V38H174.347ZM172.587 32.16L168.059 26.8H169.643L174.075 32.16L169.467 38H167.883L172.587 32.16ZM192.775 26.8L188.903 35.44C188.135 37.152 187.351 38 186.119 38C185.623 38 185.063 37.84 184.759 37.6L185.239 36.448C185.543 36.656 185.783 36.736 186.103 36.736C186.743 36.736 187.175 36.24 187.479 35.6L187.671 35.184L182.599 26.8H184.135L188.327 33.824L191.399 26.8H192.775ZM196.056 38H194.696V26.8C195.32 26.8 196.92 26.768 197.624 26.768C200.824 26.768 201.768 28.496 201.768 30.24C201.768 32.064 200.472 33.76 197.736 33.76C197.288 33.76 196.616 33.744 196.056 33.696V38ZM197.752 28.048C197.304 28.048 196.584 28.064 196.056 28.08V32.4C196.6 32.448 197.128 32.48 197.688 32.48C199.336 32.48 200.328 31.632 200.328 30.224C200.328 28.896 199.528 28.048 197.752 28.048ZM204.562 38V26.8H205.923V38H204.562ZM217.122 38V32.928H210.962V38H209.602V26.8H210.962V31.648H217.122V26.8H218.482V38H217.122ZM229.628 35.888L230.172 36.912C229.42 37.68 228.028 38.16 226.636 38.16C223.276 38.16 220.956 35.888 220.956 32.4C220.956 29.184 223.036 26.64 226.54 26.64C227.98 26.64 229.148 27.04 229.948 27.728L229.324 28.752C228.588 28.208 227.724 27.92 226.556 27.92C224.124 27.92 222.396 29.744 222.396 32.4C222.396 35.072 224.172 36.88 226.764 36.88C227.836 36.88 228.86 36.512 229.628 35.888ZM235.168 32.16C234.8 32.16 234.256 32.192 233.696 32.256V36.704C234.128 36.72 234.608 36.752 235.12 36.752C236.96 36.752 238.048 35.984 238.048 34.368C238.048 32.912 236.976 32.16 235.168 32.16ZM233.696 26.8V30.96C234.304 30.912 234.896 30.88 235.264 30.88C238.16 30.88 239.488 32.224 239.488 34.336C239.488 36.688 237.824 38.032 234.96 38.032C234 38.032 232.992 38 232.336 38V26.8H233.696ZM250.153 26.8L245.161 32.064L250.409 38H248.665L243.593 32.16L248.505 26.8H250.153ZM241.961 38V26.8H243.321V38H241.961ZM253.614 38H252.414V26.8H253.774V35.76L260.574 26.8H261.774V38H260.414V29.04L253.614 38ZM273.613 26.8L269.645 32.304L273.757 38H272.141L268.749 33.344L265.373 38H263.773L267.885 32.304L263.949 26.8H265.549L268.797 31.28L271.997 26.8H273.613Z" fill="white"/>
</svg>
